Coordinates
version=1
nRows=65
nColumns=12
inDegrees=yes

Units are S.I. units (second, meters, Newtons, ...)
Angles are in degrees

endheader
time	SC_y	SC_z	SC_x	AC_y	AC_z	AC_x	GH_y	GH_z	GH_yy	EL_x	PS_y
       0.0               -41.0          30.72          43.83          60.23           8.24         -14.82         -3.862          70.54         -50.43          101.1          9.933
    0.0172               -41.0          30.72          43.82          60.23          8.239         -14.82         -3.856          70.55         -50.41          101.1          9.938
   0.03441              -40.99          30.72          43.81          60.23          8.238         -14.81          -3.85          70.55          -50.4          101.1          9.944
   0.05161              -40.99          30.71          43.81          60.23          8.237         -14.81         -3.844          70.55         -50.38          101.1           9.95
   0.06881              -40.99          30.71           43.8          60.23          8.236          -14.8         -3.837          70.55         -50.37          101.1          9.956
   0.08602              -40.99          30.71          43.79          60.23          8.235          -14.8          -3.83          70.56         -50.35          101.1          9.962
    0.1032              -40.98          30.71          43.78          60.24          8.233         -14.79         -3.822          70.56         -50.33          101.1           9.97
    0.1204              -40.98          30.71          43.77          60.24          8.232         -14.79         -3.814          70.56         -50.31          101.1          9.977
    0.1376              -40.98          30.71          43.76          60.24           8.23         -14.78         -3.805          70.57         -50.29          101.1          9.985
    0.1548              -40.98          30.71          43.75          60.24          8.229         -14.77         -3.796          70.57         -50.27          101.1          9.994
     0.172              -40.97           30.7          43.74          60.24          8.227         -14.77         -3.785          70.57         -50.24          101.1           10.0
    0.1892              -40.97           30.7          43.73          60.24          8.225         -14.76         -3.774          70.58         -50.22          101.1          10.01
    0.2064              -40.96           30.7          43.72          60.25          8.223         -14.75         -3.763          70.58         -50.19          101.1          10.02
    0.2236              -40.96           30.7           43.7          60.25          8.221         -14.74          -3.75          70.59         -50.16          101.1          10.04
    0.2408              -40.95           30.7          43.69          60.25          8.219         -14.73         -3.736          70.59         -50.12          101.1          10.05
     0.258              -40.95          30.69          43.67          60.25          8.216         -14.72         -3.721           70.6         -50.09          101.1          10.06
    0.2753              -40.94          30.69          43.65          60.26          8.213         -14.71         -3.705          70.61         -50.05          101.1          10.08
    0.2925              -40.94          30.69          43.63          60.26           8.21          -14.7         -3.687          70.61         -50.01          101.1          10.09
    0.3097              -40.93          30.68          43.61          60.26          8.207         -14.68         -3.667          70.62         -49.96          101.1          10.11
    0.3269              -40.92          30.68          43.59          60.27          8.203         -14.67         -3.646          70.63         -49.91          101.1          10.13
    0.3441              -40.91          30.68          43.56          60.27          8.199         -14.65         -3.623          70.64         -49.85          101.1          10.15
    0.3613              -40.91          30.67          43.53          60.27          8.195         -14.63         -3.597          70.65         -49.79          101.1          10.17
    0.3785               -40.9          30.67           43.5          60.28           8.19         -14.61         -3.569          70.66         -49.72          101.1           10.2
    0.3957              -40.89          30.66          43.47          60.29          8.185         -14.59         -3.537          70.67         -49.65          101.1          10.23
    0.4129              -40.87          30.66          43.43          60.29          8.179         -14.57         -3.502          70.69         -49.56          101.1          10.26
    0.4301              -40.86          30.65          43.39           60.3          8.172         -14.54         -3.463           70.7         -49.47          101.1           10.3
    0.4473              -40.84          30.64          43.34          60.31          8.165         -14.51          -3.42          70.72         -49.37          101.1          10.34
    0.4645              -40.83          30.63          43.28          60.31          8.157         -14.47          -3.37          70.74         -49.25          101.1          10.38
    0.4817              -40.81          30.62          43.22          60.32          8.147         -14.43         -3.315          70.76         -49.12          101.1          10.43
    0.4989              -40.79          30.61          43.15          60.34          8.137         -14.39         -3.252          70.78         -48.96          101.1          10.49
    0.5161              -40.76           30.6          43.08          60.35          8.124         -14.34          -3.18          70.81         -48.79          101.1          10.56
    0.5333              -40.73          30.58          42.98          60.36           8.11         -14.28         -3.097          70.85         -48.59          101.0          10.63
    0.5505               -40.7          30.57          42.88          60.38          8.094         -14.21         -3.002          70.88         -48.37          101.0          10.72
    0.5677              -40.66          30.55          42.76           60.4          8.076         -14.14         -2.891          70.93          -48.1          101.0          10.82
    0.5849              -40.61          30.53          42.61          60.42          8.054         -14.04         -2.761          70.98         -47.79          101.0          10.94
    0.6021              -40.56           30.5          42.45          60.45          8.028         -13.94         -2.608          71.04         -47.42          101.0          11.08
    0.6193               -40.5          30.47          42.25          60.48          7.997         -13.81         -2.427          71.11         -46.99          101.0          11.24
    0.6365              -40.42          30.43          42.01          60.52           7.96         -13.65         -2.209           71.2         -46.47          101.0          11.44
    0.6537              -40.33          30.38          41.72          60.56          7.915         -13.47         -1.946           71.3         -45.84          100.9          11.68
    0.6709              -40.22          30.33          41.36          60.62          7.861         -13.24         -1.624          71.43         -45.07          100.9          11.97
    0.6881              -40.08          30.26          40.93          60.69          7.794         -12.96         -1.226          71.58         -44.12          100.9          12.34
    0.7053              -39.91          30.17          40.38          60.78           7.71         -12.61        -0.7312          71.78         -42.93          100.8          12.79
    0.7225              -39.69          30.06          39.69          60.89          7.604         -12.17        -0.1072          72.03         -41.44          100.8          13.36
    0.7397              -39.41          29.92          38.82          61.03           7.47         -11.61          0.686          72.34         -39.54          100.7          14.08
    0.7569              -39.06          29.75           37.7           61.2          7.298         -10.89          1.701          72.74         -37.11          100.6          15.01
    0.7741               -38.6          29.52          36.27          61.43          7.077         -9.975          3.004          73.25         -33.99          100.5           16.2
    0.7914              -38.02          29.23          34.44          61.73          6.795         -8.801          4.668          73.91          -30.0          100.4          17.71
    0.8086              -37.29          28.86          32.13          62.09          6.441         -7.324          6.761          74.73         -24.99          100.2          19.62
    0.8258               -36.4          28.42          29.33          62.54          6.009         -5.524          9.311          75.74         -18.89          99.96          21.95
     0.843              -35.37           27.9          26.08          63.06          5.509         -3.438          12.27          76.91         -11.81           99.7          24.64
    0.8602              -34.25          27.34          22.55          63.62          4.967         -1.179          15.47          78.17         -4.146          99.42          27.56
    0.8774              -33.14          26.78          19.03          64.18          4.425           1.08          18.67          79.43          3.517          99.14          30.48
    0.8946              -32.11          26.26          15.78           64.7          3.924          3.166          21.62           80.6          10.59          98.88          33.18
    0.9118              -31.22          25.82          12.97          65.15          3.492          4.965          24.17           81.6           16.7          98.66          35.51
     0.929              -30.49          25.45          10.67          65.51          3.138          6.442          26.27          82.43          21.71          98.47          37.41
    0.9462              -29.91          25.16          8.836          65.81          2.856          7.617          27.93          83.08          25.69          98.33          38.93
    0.9634              -29.45          24.93          7.402          66.04          2.635          8.536          29.23           83.6          28.81          98.21          40.12
    0.9806               -29.1          24.76          6.285          66.21          2.464          9.253          30.25           84.0          31.24          98.12          41.05
    0.9978              -28.82          24.62          5.412          66.35          2.329          9.813          31.04          84.31          33.14          98.06          41.77
     1.015               -28.6          24.51          4.725          66.46          2.224          10.25          31.67          84.56          34.64           98.0          42.34
     1.032              -28.43          24.42           4.18          66.55           2.14           10.6          32.16          84.75          35.82          97.96          42.79
     1.049              -28.29          24.35          3.743          66.62          2.072          10.88          32.56          84.91          36.77          97.92          43.15
     1.067              -28.18           24.3          3.389          66.68          2.018          11.11          32.88          85.04          37.54          97.89          43.45
     1.084              -28.09          24.25          3.099          66.72          1.973           11.3          33.14          85.14          38.18          97.87          43.69
     1.101              -28.01          24.21          2.859          66.76          1.936          11.45          33.36          85.23           38.7          97.85          43.89
